<svg width="251" height="249" viewBox="0 0 251 249" fill="none" xmlns="http://www.w3.org/2000/svg">
<path fill-rule="evenodd" clip-rule="evenodd" d="M202.91 118.458C212.629 143.627 252.031 160.401 243.832 186.417C236.047 211.122 197.048 209.374 171.479 218.197C150.84 225.318 131.021 233.144 109.221 232.864C85.4979 232.56 58.627 232.55 42.3048 216.539C26.1417 200.684 27.5226 175.345 27.8517 153.046C28.1266 134.422 34.8909 117.096 44.0184 100.424C52.7897 84.4023 65.3396 71.7759 79.165 59.3179C98.0459 42.3042 113.371 14.5115 139.123 14.7245C164.592 14.9352 182.406 39.5965 195.123 60.2771C205.697 77.4722 195.675 99.721 202.91 118.458Z" fill="#F9C7CF"/>
</svg>
