<svg width="353" height="326" viewBox="0 0 353 326" fill="none" xmlns="http://www.w3.org/2000/svg">
<path fill-rule="evenodd" clip-rule="evenodd" d="M181.706 0.453831C216.088 3.45633 242.709 26.488 269.849 45.655C294.617 63.1465 318.063 81.7635 332.458 106.917C347.32 132.886 354.006 161.564 352.878 190.736C351.654 222.392 348.735 256.556 325.744 280.601C302.721 304.68 265.174 311.187 230.75 318.466C197.903 325.411 164.162 329.67 131.62 321.648C98.7364 313.543 70.0398 295.907 47.1734 273.214C23.9743 250.192 5.43559 222.741 0.948964 191.972C-3.50874 161.401 8.42412 131.582 22.4149 103.42C36.5142 75.0387 53.6914 47.3994 81.7959 29.2326C110.759 10.5107 146.172 -2.64928 181.706 0.453831Z" fill="#AAFFC7"/>
</svg>
